HIERARCHY
ROOT Hips
{
 OFFSET 0.000000 0.000000 0.000000
 CHANNELS 6 Xposition Yposition Zposition Yrotation Xrotation Zrotation
 JOINT Chest
 {
  OFFSET 0.000000 9.588913 -0.003946
  CHANNELS 3 Yrotation Xrotation Zrotation
  JOINT Chest2
  {
   OFFSET 0.000000 9.541882 0.008053
   CHANNELS 3 Yrotation Xrotation Zrotation
   JOINT Chest3
   {
    OFFSET 0.000000 9.501360 0.000000
    CHANNELS 3 Yrotation Xrotation Zrotation
    JOINT Chest4
    {
     OFFSET 0.000000 9.491660 0.000000
     CHANNELS 3 Yrotation Xrotation Zrotation
     JOINT Neck
     {
      OFFSET 0.000000 14.331917 0.000000
      CHANNELS 3 Yrotation Xrotation Zrotation
      JOINT Head
      {
       OFFSET 0.000000 8.884799 0.017034
       CHANNELS 3 Yrotation Xrotation Zrotation
       End Site
       {
        OFFSET 0.000000 16.896195 0.008993
       }
      }
     }
     JOINT RightCollar
     {
      OFFSET -2.923010 9.499495 0.000000
      CHANNELS 3 Yrotation Xrotation Zrotation
      JOINT RightShoulder
      {
       OFFSET -13.795216 0.000000 0.000000
       CHANNELS 3 Yrotation Xrotation Zrotation
       JOINT RightElbow
       {
        OFFSET -30.272209 0.000000 0.000000
        CHANNELS 3 Yrotation Xrotation Zrotation
        JOINT RightWrist
        {
         OFFSET -24.478199 0.000000 0.000000
         CHANNELS 3 Yrotation Xrotation Zrotation
         End Site
         {
          OFFSET -18.090752 0.000000 0.000000
         }
        }
       }
      }
     }
     JOINT LeftCollar
     {
      OFFSET 2.923010 9.499495 0.000000
      CHANNELS 3 Yrotation Xrotation Zrotation
      JOINT LeftShoulder
      {
       OFFSET 13.795216 0.000000 0.000000
       CHANNELS 3 Yrotation Xrotation Zrotation
       JOINT LeftElbow
       {
        OFFSET 30.272209 0.000000 0.000000
        CHANNELS 3 Yrotation Xrotation Zrotation
        JOINT LeftWrist
        {
         OFFSET 24.478199 0.000000 0.000000
         CHANNELS 3 Yrotation Xrotation Zrotation
         End Site
         {
          OFFSET 18.090752 0.000000 0.000000
         }
        }
       }
      }
     }
    }
   }
  }
 }
 JOINT RightHip
 {
  OFFSET -7.826875 0.019532 0.001973
  CHANNELS 3 Yrotation Xrotation Zrotation
  JOINT RightKnee
  {
   OFFSET 0.000000 -40.546152 -0.001885
   CHANNELS 3 Yrotation Xrotation Zrotation
   JOINT RightAnkle
   {
    OFFSET 0.000000 -39.417092 -0.003189
    CHANNELS 3 Yrotation Xrotation Zrotation
    JOINT RightToe
    {
     OFFSET 0.000000 -7.579396 17.243563
     CHANNELS 3 Yrotation Xrotation Zrotation
     End Site
     {
      OFFSET 0.000000 -1.500329 6.694466
     }
    }
   }
  }
 }
 JOINT LeftHip
 {
  OFFSET 7.826875 0.019532 0.001973
  CHANNELS 3 Yrotation Xrotation Zrotation
  JOINT LeftKnee
  {
   OFFSET 0.000000 -40.546152 -0.001885
   CHANNELS 3 Yrotation Xrotation Zrotation
   JOINT LeftAnkle
   {
    OFFSET 0.000000 -39.417092 -0.003189
    CHANNELS 3 Yrotation Xrotation Zrotation
    JOINT LeftToe
    {
     OFFSET 0.000000 -7.579396 17.243563
     CHANNELS 3 Yrotation Xrotation Zrotation
     End Site
     {
      OFFSET 0.000000 -1.500329 6.694466
     }
    }
   }
  }
 }
}
MOTION
Frames: 17
Frame Time: 0.008333
-91.212005 87.153356 96.870500 -60.034455 -13.510338 1.733929 4.726300 5.717850 0.574447 3.006065 2.929286 0.455071 3.762442 3.657555 0.593035 3.006066 2.929290 0.455071 4.021815 34.127303 0.871305 4.364225 13.582570 0.098358 -11.067551 -0.505473 -0.311402 -8.230198 4.562851 85.866353 6.713471 -5.154049 2.290589 -0.482877 -1.205732 -0.412869 -5.014939 -0.439349 -2.048320 5.529774 0.942523 -85.231410 -1.947362 -2.041940 -1.956311 -6.169264 0.310540 5.706642 -1.340588 12.879307 -14.344883 -2.308950 36.310898 -4.559214 -0.067368 -5.816887 12.829173 -1.420042 -28.622918 5.413749 -0.796647 -2.639832 3.321914 3.145213 16.675827 2.094134 9.501241 -3.224973 -6.921439 0.116098 -0.376387 0.103533
-91.431560 87.207125 97.316333 -60.179157 -13.527862 1.818630 4.674229 5.744129 0.494626 2.979326 2.933580 0.427635 3.728798 3.663186 0.558554 2.979327 2.933584 0.427635 4.170971 34.150719 0.875448 4.533839 13.623989 0.070649 -11.073264 -0.406311 -0.345729 -8.248657 4.518767 85.996439 6.819578 -4.918522 2.299680 -0.526213 -1.172486 -0.419669 -5.013707 -0.551045 -2.020317 5.257761 0.682398 -85.254271 -2.054044 -2.130074 -2.081963 -6.229792 0.290929 5.805931 -1.329634 11.795145 -14.504851 -2.360327 38.265180 -5.006120 0.167889 -4.588105 12.751638 -1.735163 -30.687457 6.162924 -0.613119 -2.291271 3.073668 3.165732 16.631664 2.092193 9.526965 -3.506696 -6.808654 0.112666 -0.243631 0.109161
-91.635012 87.260708 97.738470 -60.280979 -13.515931 1.910667 4.605265 5.766328 0.410801 2.947020 2.933423 0.394787 3.688140 3.663298 0.517225 2.947020 2.933427 0.394787 4.322209 34.165283 0.882517 4.705113 13.653198 0.045739 -11.075933 -0.309412 -0.380699 -8.273290 4.467776 86.143227 6.923636 -4.712360 2.307039 -0.556413 -1.152771 -0.427660 -5.023250 -0.679286 -1.995842 5.005151 0.419383 -85.253319 -2.187832 -2.235376 -2.244968 -6.257911 0.324642 5.887271 -1.336799 10.675917 -14.661246 -2.399099 40.173068 -5.405645 0.335388 -3.337753 12.450143 -2.135589 -32.644320 7.134677 -0.516685 -1.986321 2.824059 3.166675 16.577321 2.058357 9.595406 -3.753457 -6.693075 0.100901 -0.140724 0.115066
-91.824992 87.312595 98.121701 -60.367626 -13.440031 1.923659 4.558736 5.734690 0.412036 2.907641 2.930915 0.357692 3.638599 3.660509 0.470510 2.907641 2.930920 0.357692 4.477475 34.170977 0.892742 4.880210 13.670274 0.023459 -11.073911 -0.218835 -0.414458 -8.298453 4.417559 86.304512 7.026638 -4.555987 2.315288 -0.573262 -1.150626 -0.433329 -5.047169 -0.825029 -1.987443 4.782762 0.161051 -85.217928 -2.360829 -2.334446 -2.433935 -6.251815 0.353816 5.934225 -1.326581 9.495005 -14.713232 -2.435226 42.015703 -5.775213 0.484379 -2.107687 11.945882 -2.657044 -34.353097 8.299119 -0.495350 -1.759867 2.685100 3.167821 16.512947 1.994987 9.680511 -3.962800 -6.595779 0.093070 -0.061932 0.124932
-92.007363 87.367521 98.490237 -60.375578 -13.402309 1.945666 4.461295 5.746344 0.401545 2.860802 2.928294 0.317678 3.579708 3.657602 0.420085 2.860802 2.928300 0.317677 4.635674 34.169922 0.903991 5.058399 13.678226 0.001656 -11.063599 -0.136116 -0.443485 -8.325477 4.370809 86.473984 7.125196 -4.460075 2.328953 -0.577997 -1.164717 -0.436445 -5.087364 -0.991270 -2.003964 4.593780 -0.083679 -85.136149 -2.568280 -2.408174 -2.637778 -6.231557 0.344429 5.941584 -1.388537 8.349581 -14.765728 -2.481203 43.787764 -6.127210 0.555109 -0.893443 11.230514 -3.233883 -35.753580 9.661746 -0.605994 -1.514321 2.534124 3.183911 16.447305 1.908194 9.777293 -4.125680 -6.496924 0.081147 -0.023729 0.133605
-92.183827 87.426066 98.847233 -60.307986 -13.411684 1.983199 4.317538 5.800123 0.369565 2.807540 2.926596 0.276873 3.512781 3.655849 0.368628 2.807540 2.926601 0.276873 4.793937 34.166426 0.914614 5.236878 13.683055 -0.020871 -11.048808 -0.056857 -0.467554 -8.352861 4.327720 86.645559 7.215236 -4.427472 2.352776 -0.571778 -1.188663 -0.438051 -5.144821 -1.171878 -2.045044 4.434561 -0.312755 -85.004476 -2.805709 -2.453772 -2.856151 -6.220386 0.305968 5.917867 -1.525906 7.259224 -14.831869 -2.556516 45.468476 -6.467130 0.538670 0.202621 10.373426 -3.796094 -36.707227 11.113389 -0.826592 -1.241928 2.360678 3.215889 16.386519 1.804809 9.878376 -4.262853 -6.395788 0.067980 -0.009347 0.141354
-92.350297 87.486225 99.186870 -60.216070 -13.414504 2.023592 4.181033 5.836471 0.329902 2.749428 2.926530 0.237176 3.439800 3.656120 0.318530 2.749428 2.926534 0.237176 4.951331 34.163721 0.924188 5.414753 13.689318 -0.044359 -11.035212 0.023707 -0.486624 -8.375861 4.289347 86.818945 7.298834 -4.451456 2.387002 -0.557645 -1.219116 -0.435378 -5.218944 -1.355281 -2.098821 4.300855 -0.537918 -84.833401 -3.067405 -2.473058 -3.095747 -6.226679 0.258425 5.888696 -1.708282 6.204276 -14.901159 -2.698720 46.993377 -6.818075 0.447492 1.046587 9.537624 -4.205011 -36.991797 12.425577 -1.081019 -0.990993 2.190290 3.264008 16.319443 1.691475 9.968997 -4.366000 -6.290832 0.054252 -0.018652 0.146810
-92.503823 87.546837 99.508133 -60.138679 -13.376888 2.072156 4.086761 5.819453 0.279237 2.688198 2.929055 0.200538 3.362950 3.659596 0.272251 2.688199 2.929059 0.200538 5.106607 34.164415 0.931200 5.591010 13.700674 -0.070220 -11.025221 0.106257 -0.503973 -8.393842 4.254506 86.996283 7.376539 -4.509851 2.428127 -0.536866 -1.255976 -0.424771 -5.306234 -1.531165 -2.159682 4.195519 -0.775502 -84.634795 -3.347106 -2.456658 -3.355697 -6.241805 0.211724 5.875928 -1.924213 5.183790 -14.985720 -2.956936 48.301594 -7.214946 0.291183 1.501244 8.897444 -4.310173 -36.409538 13.367240 -1.306633 -0.788480 2.024895 3.327269 16.236609 1.578482 10.031237 -4.437121 -6.183250 0.041182 -0.045290 0.149935
-92.647195 87.608272 99.813160 -60.083644 -13.306095 2.125412 4.037653 5.750823 0.219960 2.625375 2.934700 0.168856 3.284149 3.666925 0.232177 2.625376 2.934704 0.168856 5.259026 34.171541 0.934437 5.765167 13.721416 -0.099632 -11.019081 0.190634 -0.521826 -8.409548 4.222277 87.177466 7.444502 -4.579553 2.470494 -0.507408 -1.305532 -0.410149 -5.401686 -1.692690 -2.231781 4.113080 -1.036437 -84.413004 -3.629556 -2.408134 -3.628336 -6.261492 0.166329 5.884750 -2.184190 4.212945 -15.084086 -3.321719 49.376892 -7.659692 0.067961 1.515146 8.524138 -4.063595 -34.927426 13.853482 -1.474824 -0.621532 1.865779 3.403740 16.133272 1.478871 10.052703 -4.479740 -6.079153 0.029027 -0.084654 0.152508
-92.787235 87.671823 100.105349 -60.034872 -13.236667 2.168182 4.014158 5.658750 0.163012 2.562254 2.943634 0.143731 3.205030 3.678307 0.200320 2.562254 2.943636 0.143730 5.408987 34.186775 0.933033 5.937933 13.753984 -0.133642 -11.015151 0.277209 -0.540707 -8.425347 4.195253 87.361361 7.501279 -4.653751 2.508511 -0.468012 -1.374457 -0.401351 -5.496715 -1.838997 -2.321643 4.031259 -1.321942 -84.169811 -3.901590 -2.352739 -3.906732 -6.289918 0.127959 5.910570 -2.506456 3.317134 -15.176068 -3.721678 50.227227 -8.112069 -0.225582 1.146632 8.381348 -3.532821 -32.666808 13.950950 -1.588027 -0.454386 1.720859 3.493892 16.014197 1.401512 10.029022 -4.501473 -5.983989 0.017759 -0.132839 0.156025
-92.930266 87.738738 100.388816 -59.968023 -13.205322 2.188416 3.990120 5.577827 0.114473 2.500131 2.956013 0.126067 3.127222 3.693936 0.177820 2.500131 2.956014 0.126066 5.557062 34.209766 0.926010 6.110189 13.797949 -0.173489 -11.014921 0.366623 -0.560769 -8.440696 4.173478 87.546840 7.546711 -4.732223 2.541563 -0.420254 -1.451147 -0.398185 -5.587875 -1.969734 -2.431509 3.931868 -1.631703 -83.911144 -4.158312 -2.310729 -4.178533 -6.331656 0.100759 5.944672 -2.893775 2.520812 -15.249065 -4.097444 50.870618 -8.521747 -0.562040 0.516281 8.389167 -2.841127 -29.833390 13.786953 -1.668514 -0.249923 1.594326 3.600819 15.883950 1.347300 9.964026 -4.508695 -5.896506 0.007060 -0.186802 0.159578
-93.080329 87.810305 100.671216 -59.855526 -13.250651 2.198707 3.933562 5.548509 0.056418 2.441308 2.971925 0.116046 3.053604 3.713921 0.164924 2.441308 2.971925 0.116046 5.703081 34.239105 0.913437 6.281696 13.851307 -0.219077 -11.024444 0.458558 -0.582419 -8.454161 4.154746 87.733419 7.579816 -4.809980 2.571213 -0.367389 -1.514915 -0.393773 -5.678319 -2.084162 -2.557801 3.807202 -1.969839 -83.646713 -4.392779 -2.281365 -4.430716 -6.393256 0.067952 5.982508 -3.346007 1.850382 -15.320429 -4.411986 51.330419 -8.846555 -0.913190 -0.248226 8.455688 -2.097902 -26.655243 13.493464 -1.747859 0.031771 1.464344 3.720195 15.742174 1.312526 9.861642 -4.500436 -5.811152 -0.003172 -0.249411 0.160994
-93.237533 87.886083 100.954126 -59.697475 -13.373000 2.198741 3.842661 5.574441 -0.009364 2.388132 2.991210 0.113224 2.987107 3.738070 0.161090 2.388131 2.991209 0.113223 5.847353 34.273301 0.897518 6.452284 13.911913 -0.267993 -11.048862 0.551526 -0.608416 -8.466919 4.138401 87.920554 7.598821 -4.880251 2.598864 -0.311601 -1.563263 -0.385230 -5.774354 -2.186067 -2.700063 3.665886 -2.335884 -83.381098 -4.600521 -2.252653 -4.655893 -6.476960 0.018828 6.021469 -3.822756 1.298468 -15.382797 -4.647298 51.631344 -9.054852 -1.262851 -1.017450 8.501095 -1.378152 -23.371430 13.174696 -1.828163 0.393941 1.330763 3.826769 15.584578 1.291139 9.740935 -4.469736 -5.725383 -0.013121 -0.325607 0.158267
-93.399689 87.963573 101.229441 -59.519349 -13.530462 2.151864 3.748936 5.618272 -0.039268 2.340350 3.012672 0.116394 2.927406 3.764898 0.164802 2.340349 3.012670 0.116393 5.993023 34.311418 0.880989 6.624944 13.978626 -0.317823 -11.087588 0.647472 -0.639558 -8.475020 4.122343 88.106185 7.603803 -4.950070 2.622604 -0.256162 -1.609356 -0.372853 -5.885026 -2.283063 -2.862729 3.529408 -2.719682 -83.112109 -4.787323 -2.219027 -4.847757 -6.571563 -0.030760 6.054759 -4.248861 0.822347 -15.381090 -4.811765 51.799975 -9.130271 -1.595095 -1.720216 8.476694 -0.733307 -20.172498 12.886176 -1.884656 0.795217 1.240862 3.888143 15.418699 1.275484 9.633831 -4.443232 -5.643415 -0.022435 -0.392931 0.151302
-93.563201 88.041208 101.498183 -59.328012 -13.702880 2.069876 3.657805 5.669810 -0.040771 2.297203 3.034035 0.124253 2.873540 3.791572 0.174410 2.297201 3.034033 0.124253 6.143161 34.353064 0.865356 6.802881 14.051115 -0.367522 -11.135186 0.749918 -0.674807 -8.473545 4.102359 88.286350 7.597152 -5.032936 2.636793 -0.207992 -1.663325 -0.357784 -6.010540 -2.383905 -3.044296 3.411606 -3.104950 -82.842926 -4.964517 -2.176914 -5.005949 -6.662672 -0.071736 6.084456 -4.585700 0.396437 -15.313484 -4.905713 51.859408 -9.063432 -1.943568 -2.300383 8.356139 -0.158827 -17.224324 12.657027 -1.917869 1.217059 1.187275 3.896725 15.241635 1.256298 9.547299 -4.424202 -5.563050 -0.030736 -0.447817 0.142480
-93.724197 88.116078 101.754327 -59.154522 -13.844216 1.936360 3.598742 5.695031 0.009638 2.259115 3.053075 0.135863 2.826029 3.815319 0.188730 2.259114 3.053073 0.135863 6.298797 34.396474 0.851418 6.987076 14.126958 -0.416422 -11.184796 0.855460 -0.715366 -8.466882 4.078850 88.458549 7.578337 -5.133959 2.639187 -0.169009 -1.729081 -0.337307 -6.138720 -2.497455 -3.233181 3.312241 -3.477774 -82.585366 -5.138791 -2.123449 -5.139262 -6.742380 -0.107468 6.120520 -4.787680 -0.025694 -15.145935 -4.919035 51.822577 -8.855381 -2.316777 -2.743396 8.175220 0.330547 -14.639169 12.460280 -1.909734 1.611458 1.201815 3.876073 15.063371 1.229770 9.467534 -4.433097 -5.487133 -0.039201 -0.476259 0.134195
-93.880328 88.187162 102.002804 -58.993084 -13.951109 1.779485 3.559537 5.703497 0.084230 2.225541 3.068067 0.150464 2.784185 3.833987 0.206799 2.225540 3.068065 0.150464 6.461049 34.439642 0.838966 7.178831 14.203427 -0.465021 -11.229827 0.956527 -0.762165 -8.457484 4.057538 88.619931 7.547052 -5.258986 2.632100 -0.134836 -1.808767 -0.308011 -6.256430 -2.624712 -3.416019 3.232461 -3.835874 -82.355131 -5.314795 -2.059425 -5.255170 -6.803415 -0.133814 6.165032 -4.856094 -0.447989 -14.913008 -4.869109 51.693607 -8.529903 -2.712092 -3.046156 7.996545 0.727761 -12.497895 12.248771 -1.874526 1.971767 1.252974 3.854461 14.884671 1.199048 9.372298 -4.460854 -5.413118 -0.046959 -0.487649 0.128118
